<?xml version="1.0" encoding="UTF-8"?>
<svg xmlns="http://www.w3.org/2000/svg" version="1.1" viewBox="0 0 338.92 641.66">
  <!-- Generator: Adobe Illustrator 30.2.1, SVG Export Plug-In . SVG Version: 2.1.1 Build 1)  -->
  <g id="Layer_2">
    <rect y="359.69" width="338.92" height="281.96" fill="#90d9ee"/>
    <path d="M0,499.9l2.7,2.69.9-2.69.9-3.04,5.91.36,5.73,5.37,10.92,9.67,3.22,3.94,12.54,1.43,17.91,1.79.9-2.69,9.31-2.87-5.37-7.34v-6.45l-4.48-3.04-7.52-1.61.9-5.91,4.84-4.48,7.52,2.87.72,4.84,7.34,5.55,9.31-1.61,12.54,5.55,12.36,1.25,1.43,2.33,14.33,4.84,1.97-3.58,2.33.18,1.25-5.01,19.7-17.19s-9.13-18.8-9.67-18.8-4.3-15.4-4.3-15.4l-4.84-5.37v-7.52s-13.07-9.49-13.43-9.49,1.79-36,1.79-36l5.19,3.76-1.79,6.98,4.3,6.81-2.69,2.51,5.01,13.43,6.81,3.22,10.03,14.15,6.81,29.37,4.12,9.49,8.95,5.73,6.63.18,4.12.18,10.75-7.16,3.76-3.4.9-4.3-7.16-8.06-9.49-14.69,4.12-6.81-.54-10.75,2.69,1.43-.54,6.81,3.04,2.69.9,7.34s12,7.88,11.46,8.06,7.7,11.1,7.7,11.1l10.21-.18,19.34-14.42,4.3-2.96,2.69-6.81,3.04,8.95,6.27,1.79,4.12,3.4,7.16-1.61,11.46.36s8.78-6.09,8.24-6.27,12.18,4.66,11.82,4.84,0,7.16,0,7.16c0,0,6.98,1.61,6.98,1.25s4.48,4.84,4.84,4.3,10.57,2.87,10.03,3.04,9.13-1.25,8.6-1.43,10.75-5.37,10.75-5.37l4.35,2.3V0S0,0,0,0v499.9Z" fill="#f6f6f6"/>
    <path d="M0,540.36l6.95-2.66,7.78,4.17,9.86-5.31h7.02l12.52,1.14,1.71,4.17h5.12l4.93-5.31,11.19-.76,8.92,5.12,4.93.19,8.35-9.11,12.14,2.47,12.9-1.33,5.69,3.79,8.16,2.28,2.85-2.28h9.67s7.59,6.07,7.21,4.93,5.12-2.47,5.12-2.47c0,0-5.31,9.3-5.88,8.92s-7.21,5.31-7.21,5.31l-4.17,1.52-5.31,5.12-2.66,22.57-7.4-3.79-3.22-7.21-14.8-1.71-6.45-7.59,1.52-5.12-7.21-2.85-7.59,4.17-1.9,7.59-8.16,1.71-3.04-6.26-8.54-3.41.95,13.47-8.16-4.55-8.92,2.47-5.69,4.55h-19.16l-1.71,3.04-18.34,3.98v-40.97Z" fill="#d3f7e2"/>
    <path d="M208.63,633.29l-8.18,3.81-1.34,4.56H0v-15.47l6.16,2.29,7.11-9.32,4.58,6.4,13.03-.71,3.96,5.1,7.1-4.71,5.93-.16,3.55,2.61,5.57-4.79,5.65,1,11.93-9.32,1.97,3.26,8.53-.5,5.03,5.86,15.45-5.63,17.8-3.39,2.98,3.73-1.8-3.73,4.56-1.37,2.09-1.48-5.83.21-4.89.33-3.32.58-9.32,3.75-8.3-2.5-6.71.48-1.07-9.9-7.29,2.97-19.03-2.08-2.26,6.59-4.34,2.42-9.09-2.76-3.18,2.76h-8.98l-7.28-5.6,1.71-3.75-7.03-3.2-4.28,6.13,1.13,7.78-14.26.09-3.87-16.03L0,600.19v-14.29h19.04l5.14-3.05,5.14,3.05,4-4.38,9.89-1.33-1.52,11.61,4.95,7.42,5.9-3.81-4.38-7.04,4.38-10.28,12.95,6.28,6.28-6.28,2.66,13.9,5.14-2.48s.16.17.42.46c.09.09.19.2.3.32,1.24,1.36,3.67,4.06,3.87,4.63.02.04.03.07.01.09.16-.05.78-.2,1.68-.4.15-.03.3-.06.47-.1.33-.07.69-.15,1.07-.23.19-.04.39-.09.59-.13,1.88-.41,4.16-.89,6.09-1.29.16-.03.31-.07.45-.1.19-.04.38-.08.56-.11.15-.03.29-.06.43-.09.39-.08.74-.16,1.06-.22.12-.03.25-.06.36-.08.81-.17,1.3-.27,1.3-.27h6.66l4.38,3.61-1.34,4.57,6.86,4.19,7.23-1.33,1.9-3.62,3.7,2.31,8.49,5.31,10.09-2.67,2.66-3.62,10.66-1.9,6.66-3.43,19.61,18.66,10.66,9.71,12.18,9.51Z" fill="#fff"/>
    <polygon points="159.52 598.84 153.02 610.52 140.83 631.34 126.33 617.91 124.53 614.18 129.09 612.81 131.18 611.33 125.35 611.54 127.62 601.72 136.11 607.03 146.2 604.36 148.86 600.74 159.52 598.84" fill="#f6f6f6"/>
    <path d="M84.14,595.03s0-.01.01-.02c-.02,0-.03.02-.01.02Z" fill="none" stroke="#f6f6f6" stroke-miterlimit="10"/>
    <polygon points="121.77 637.22 124.99 641.66 0 641.66 0 626.19 6.16 628.48 13.27 619.16 17.85 625.56 30.88 624.85 34.84 629.95 41.94 625.24 47.87 625.08 51.42 627.69 56.99 622.9 62.64 623.9 74.57 614.58 76.54 617.84 85.07 617.34 90.1 623.2 105.55 617.57 123.35 614.18 126.33 617.91 118.55 621.66 105.66 622.17 97.09 631.32 105.67 639.37 121.77 637.22" fill="#d3f7e2"/>
    <path d="M127.62,601.72l-1.26,4.51-1.01,5.31-4.89.33-3.32.58-9.32,3.75-8.3-2.5-6.71.48-1.07-9.9-7.29,2.97-19.03-2.08-2.26,6.59-4.34,2.42-9.09-2.76-3.18,2.76h-8.98l-7.28-5.6,1.71-3.75-7.03-3.2-4.28,6.13,1.13,7.78-14.26.09-3.87-16.03L0,600.19v-14.29h19.04l5.14-3.05,5.14,3.05,4-4.38,9.89-1.33-1.52,11.61,4.95,7.42,5.9-3.81-4.38-7.04,4.38-10.28,12.95,6.28,6.28-6.28,2.66,13.9,5.14-2.48s.16.17.42.46c.09.09.19.2.3.32,1.24,1.36,3.67,4.06,3.87,4.63.02.05.02.08,0,.09,0,0-.01,0-.01,0h.02c.16-.06.78-.21,1.68-.41.15-.03.3-.06.47-.1.33-.07.69-.15,1.07-.23.19-.04.39-.09.59-.13,1.88-.41,4.16-.89,6.09-1.29.15-.03.3-.06.45-.1.19-.04.38-.08.56-.11.15-.03.29-.06.43-.09.39-.08.74-.16,1.06-.22.12-.03.25-.06.36-.08.81-.17,1.3-.27,1.3-.27h6.66l4.38,3.61-1.34,4.57,6.86,4.19,7.23-1.33,1.9-3.62,3.7,2.31Z" fill="#d3f7e2"/>
  </g>
  <g id="Layer_3">
    <polygon points="338.92 483.47 337.43 482.41 327.31 485.82 313.46 484.97 308.77 490.51 297.06 484.97 287.79 488.7 287.79 484.22 285.55 481.56 282.68 478.58 274.05 477.41 267.34 487.21 258.71 491.79 248.8 492.96 243.69 489.55 231.23 487.31 231.23 480.71 231.76 476.87 228.89 475.6 219.3 478.9 214.72 484.28 216.1 490.83 221.96 500.41 210.56 497.54 209.39 486.99 205.98 483.9 191.71 488 181.06 492.64 170.51 495.09 152.51 510.32 158.8 515.43 161.99 512.56 192.35 532.9 186.39 541.1 179.36 537.7 180.74 542.6 174.88 552.08 175.09 566.99 185 566.99 184.36 573.7 184.89 583.18 190.43 583.18 199.59 575.51 204.81 571.35 211.74 568.8 212.48 565.39 220.26 559.11 222.39 549.63 219.41 544.62 234 542.28 241.88 547.81 248.38 559.11 252.21 573.06 258.82 581.15 270.32 583.82 283.42 578.6 291.94 575.94 291.41 566.56 286.3 565.18 291.52 561.13 297.38 563.79 299.08 559 319.32 558.89 320.38 563.05 334.55 558.15 338.92 550.05 338.92 547.49 330.82 543.13 337.43 532.69 334.66 525.55 335.94 518.84 338.92 518.31 338.92 483.47" fill="#fff"/>
    <polygon points="338.92 556.64 338.02 556.64 332.45 566.62 327.27 569.41 308.08 570.17 309.61 580.15 317.29 583.03 333.03 580.15 338.92 579.87 338.92 556.64" fill="#fff"/>
    <polygon points="338.92 586.64 335.41 587.42 330.07 587.42 317.73 587.03 305.05 584.58 297.46 577.24 292.86 577.24 292.03 583.82 288.94 589.77 277.68 593.45 274.84 598.73 269.31 602.51 269.31 612.65 266.34 612.14 266.34 600.06 253.13 595.76 248.52 590.84 243.1 584.8 236.34 589.82 234.09 585.11 248.73 580.5 238.69 570.56 235.42 575.99 228.97 573.84 229.58 566.06 228.45 564.22 222.1 564.83 190.15 585.21 174.59 585.82 170.39 590.53 205.31 622.28 206.64 626.58 210.74 621.97 218.32 618.69 242.48 616.34 246.99 617.67 261.22 614.9 287.03 619.51 310.48 629.96 318.57 632.21 338.92 635.8 338.92 586.64" fill="#fff"/>
  </g>
  <g id="Layer_4">
    <polygon points="61.82 242.57 78.15 242.57 85.26 251.02 95.63 255.25 99.67 250.25 115.42 260.05 115.42 266.39 125.02 273.11 129.43 274.41 144.13 277.18 151.78 282.64 166.14 302.72 157.49 329.54 146.76 349.62 145.03 366.41 147.28 377.14 127.37 386.49 101.41 391.86 83.58 386.32 79.25 372.99 70.94 366.93 63.33 366.93 53.46 358.8 50.52 351.18 53.12 344.26 50.52 321.41 39.79 315.52 34.08 305.83 32.17 293.54 46.43 266.15 26.37 279.3 19.04 271.32 7.82 283.83 11.7 302.6 -.38 318.56 -.38 212.44 10.62 212.44 20.12 212.44 28.1 216.53 20.33 240.69 61.82 242.57" fill="#d3f7e2"/>
    <polygon points="148.87 276.17 160.98 273.31 160.98 279.98 167.94 279.98 167.36 295.99 148.87 276.17" fill="#d3f7e2"/>
    <polygon points="228.65 207.79 233.89 206.95 243.83 215.85 240.27 220.67 217.86 218.58 219.33 211.56 230.53 213.16 228.65 207.79" fill="#d3f7e2"/>
    <polygon points="0 163.68 9.69 163.68 27.41 143.08 54.21 143.08 61.74 121.82 63.73 112.3 61.52 96.57 10.35 101.66 7.47 82.39 23.64 76.19 44.46 57.14 52.88 65.34 86.99 72.87 86.99 59.14 111.13 64.67 111.13 48.51 98.29 40.31 99.84 19.71 123.1 52.27 139.71 73.98 140.59 91.7 155.88 104.32 154.1 120.93 175.81 121.6 191.09 109.86 203.94 128.69 194.42 130.02 198.4 158.81 217.86 165.9 220.11 157.26 237.39 195.8 252.23 192.04 258.65 180.52 270.17 198.02 270.17 219.06 255.33 230.13 270.17 249.4 277.04 240.1 303.84 249.4 314.91 273.31 332.85 274.65 338.92 297.69 339.05 0 -.38 0 0 163.68" fill="#d3f7e2"/>
  </g>
  <g id="Layer_5">
    <polygon points="338.92 635.8 321.1 633.2 314.2 629.99 310.15 625.44 310.06 625.2 295.86 589.03 282.74 567.16 282.69 566.99 274.14 538.85 237.19 518.58 226.47 516.39 223.04 509.04 216.49 502.2 203.52 496.24 194.51 490.38 187.73 479.31 189.16 473.45 184.78 470.66 179.64 464.38 172.3 453.38 173.73 436 175 422.02 183.01 413.09 180.98 395.37 176.3 388.22 165.42 386.43 150.75 376.65 150.06 361.92 166.86 332.41 167.54 304.57 177.03 285.9 177.86 272.55 174.82 257.89 171.14 246.34 148.34 222.46 118.71 217.26 112.94 214.11 94.85 186.57 95.86 157.66 98.32 146.8 92.41 135.68 94.62 129.48 101.01 122.08 101.85 86.44 95.75 65.27 84.04 56.17 84.04 33.93 76.27 0 79.24 0 86.94 33.6 86.94 54.75 98.27 63.56 104.76 86.06 103.88 123.19 97.17 130.96 95.57 135.45 101.39 146.39 98.71 158.16 97.78 185.75 114.96 211.91 119.68 214.49 149.78 219.77 173.7 244.83 177.65 257.23 180.77 272.34 179.89 286.68 170.42 305.3 169.74 333.21 153 362.62 153.58 375.05 166.51 383.67 178.03 385.56 183.78 394.36 186.04 414.06 177.8 423.24 176.62 436.25 175.28 452.61 182.01 462.71 186.73 468.46 192.47 472.11 190.83 478.83 196.64 488.31 205.01 493.75 218.21 499.8 225.47 507.38 228.48 513.84 238.2 515.82 276.57 536.88 285.41 565.98 298.52 587.86 312.66 623.9 315.96 627.61 321.91 630.38 338.92 632.86 338.92 635.8" fill="#abbdd4"/>
    <polygon points="220.71 615.8 218.15 611.96 215.68 597.49 198.71 581.86 194.52 576.16 195.49 530.75 204.7 528.35 207.04 523.89 207.04 519.86 227.05 513.73 227.9 516.5 209.94 522 209.94 524.6 206.67 530.84 198.34 533 197.44 575.24 200.96 580.03 218.38 596.02 220.9 610.87 222.08 612.64 247.68 608.41 256.52 607.92 266.76 611.13 273.04 608.99 291.61 598.34 296.62 589.5 299.15 590.92 293.74 600.46 274.11 611.69 266.8 614.19 256.15 610.85 247.91 611.3 220.71 615.8" fill="#abbdd4"/>
    <polygon points="100.95 393.63 70.42 389.56 52.12 388.68 47.11 387.92 24.49 376.1 2.66 375.23 -.06 373.81 0 370.57 3.43 372.36 25.26 373.23 48.03 385.12 52.48 385.8 70.75 386.67 100.88 390.69 126.35 386.14 144.68 377.54 151.58 374.52 152.75 377.17 145.88 380.19 127.23 388.93 100.95 393.63" fill="#abbdd4"/>
    <polygon points="0 383 12.65 373.69 14.78 375.72 0 386.61 0 383" fill="#abbdd4"/>
    <polygon points="171.8 488.95 156.73 478.53 155.5 463.78 150.74 453.47 149.54 435.27 145.91 430.35 137.01 427.97 128.22 417.42 125.35 387.67 128.23 387.39 131.02 416.26 138.64 425.41 147.64 427.81 152.38 434.23 153.59 452.74 158.35 463.02 159.51 476.92 172.49 485.9 177.03 485.17 183.65 479.43 188.82 477.69 189.74 480.44 185.12 481.99 178.31 487.9 171.8 488.95" fill="#abbdd4"/>
    <polygon points="224.03 269.54 200.41 269.54 175.65 258.86 176.8 256.19 201.01 266.64 223.78 266.64 229.84 265.58 232.36 262.23 238.83 220.8 247.72 209.76 260.59 200.94 266.1 186.73 268.14 184.39 283.84 141.95 285.92 120.13 300.57 101.67 328.12 93.61 338.92 78.14 338.92 83.2 329.91 96.11 302.26 104.2 288.72 121.26 286.69 142.6 270.68 185.9 268.62 188.25 262.97 202.82 249.71 211.91 241.57 222.01 235.12 263.39 231.47 268.24 224.03 269.54" fill="#abbdd4"/>
  </g>
  <g id="Layer_6">
    <polygon points="284.12 412.63 289 410.41 292.93 415.37 292.33 420.84 288.91 427.85 292.93 435.47 297.46 439.14 303.02 447.18 299.6 449.23 286.26 449.23 292.07 456.93 282.07 452.4 273.6 457.87 256.75 458.38 256.75 464.11 250.94 456.67 244.53 455.14 241.45 445.9 251.74 416.58 250.68 440.04 253.11 453.25 255.65 457.16 258.93 456.63 268.86 451.34 263.26 447.75 263.26 445.32 280.7 443.21 283.44 439.3 281.96 425.66 288.62 414.88 284.12 412.63" fill="#d3f7e2"/>
    <polygon points="267.44 487.24 274.05 477.55 282.13 478.17 288.67 483.94 287.75 489.09 297.29 485.24 287.28 493.01 254.05 492.55 260.51 491.09 267.44 487.24" fill="#d3f7e2"/>
    <polygon points="169.46 348.7 174.47 348.7 184.31 363.19 180.81 369.75 170.96 360.7 169.46 348.7" fill="#d3f7e2"/>
    <polygon points="219.2 211.41 218.16 217.91 240.25 220.94 243.89 216.18 234.1 207 229.08 207.6 231.5 213.97 219.2 211.41" fill="#d3f7e2"/>
  </g>
</svg>